<?xml version="1.0" encoding="UTF-8" standalone="no"?>
<svg
   height="24"
   viewBox="0 -960 960 960"
   width="24"
   version="1.1"
   id="svg1"
   sodipodi:docname="app-logo.svg"
   inkscape:version="1.3.2 (1:1.3.2+202311252150+091e20ef0f)"
   xmlns:inkscape="http://www.inkscape.org/namespaces/inkscape"
   xmlns:sodipodi="http://sodipodi.sourceforge.net/DTD/sodipodi-0.dtd"
   xmlns="http://www.w3.org/2000/svg"
   xmlns:svg="http://www.w3.org/2000/svg">
  <defs
     id="defs1" />
  <sodipodi:namedview
     id="namedview1"
     pagecolor="#ffffff"
     bordercolor="#000000"
     borderopacity="0.25"
     inkscape:showpageshadow="2"
     inkscape:pageopacity="0.0"
     inkscape:pagecheckerboard="0"
     inkscape:deskcolor="#d1d1d1"
     inkscape:zoom="10.945424"
     inkscape:cx="-4.522438"
     inkscape:cy="11.374617"
     inkscape:window-width="1920"
     inkscape:window-height="1007"
     inkscape:window-x="0"
     inkscape:window-y="0"
     inkscape:window-maximized="1"
     inkscape:current-layer="svg1" />
  <path
     d="M620-740q-33 0-56.5-23.5T540-820q0-33 23.5-56.5T620-900q33 0 56.5 23.5T700-820q0 33-23.5 56.5T620-740ZM432-540l88 92v248h-80v-200L312-512q-14-12-19-25t-5-31q0-18 5.5-30.5T312-624l112-112q13-13 27.5-18.5T484-760q18 0 32.5 5.5T544-736l76 76q27 27 63 43.5t81 16.5v80q-63 0-114-22.5T560-604l-32-32-96 96Zm-232 60q85 0 142.5 57.5T400-280q0 85-57.5 142.5T200-80q-85 0-142.5-57.5T0-280q0-85 57.5-142.5T200-480Zm0 340q57 0 98.5-41.5T340-280q0-57-41.5-98.5T200-420q-57 0-98.5 41.5T60-280q0 57 41.5 98.5T200-140Zm560-340q85 0 142.5 57.5T960-280q0 85-57.5 142.5T760-80q-85 0-142.5-57.5T560-280q0-85 57.5-142.5T760-480Zm0 340q57 0 98.5-41.5T900-280q0-57-41.5-98.5T760-420q-57 0-98.5 41.5T620-280q0 57 41.5 98.5T760-140Z"
     id="path1"
     style="fill:#f5f5dc;fill-opacity:1" />
</svg>
