<?xml version="1.0" encoding="UTF-8" standalone="no"?>
<svg
   width="24"
   height="24"
   viewBox="0 0 24 24"
   version="1.1"
   id="svg1"
   sodipodi:docname="icon-search.svg"
   inkscape:version="1.3.2 (1:1.3.2+202311252150+091e20ef0f)"
   xmlns:inkscape="http://www.inkscape.org/namespaces/inkscape"
   xmlns:sodipodi="http://sodipodi.sourceforge.net/DTD/sodipodi-0.dtd"
   xmlns="http://www.w3.org/2000/svg"
   xmlns:svg="http://www.w3.org/2000/svg">
  <defs
     id="defs1" />
  <sodipodi:namedview
     id="namedview1"
     pagecolor="#ffffff"
     bordercolor="#000000"
     borderopacity="0.25"
     inkscape:showpageshadow="2"
     inkscape:pageopacity="0.0"
     inkscape:pagecheckerboard="0"
     inkscape:deskcolor="#d1d1d1"
     inkscape:zoom="10.945424"
     inkscape:cx="-2.7865527"
     inkscape:cy="11.009167"
     inkscape:window-width="1920"
     inkscape:window-height="1007"
     inkscape:window-x="0"
     inkscape:window-y="0"
     inkscape:window-maximized="1"
     inkscape:current-layer="svg1" />
  <path
     d="M23.111 20.058l-4.977-4.977c.965-1.52 1.523-3.322 1.523-5.251 0-5.42-4.409-9.83-9.829-9.83-5.42 0-9.828 4.41-9.828 9.83s4.408 9.83 9.829 9.83c1.834 0 3.552-.505 5.022-1.383l5.021 5.021c2.144 2.141 5.384-1.096 3.239-3.24zm-20.064-10.228c0-3.739 3.043-6.782 6.782-6.782s6.782 3.042 6.782 6.782-3.043 6.782-6.782 6.782-6.782-3.043-6.782-6.782zm2.01-1.764c1.984-4.599 8.664-4.066 9.922.749-2.534-2.974-6.993-3.294-9.922-.749z"
     id="path1"
     style="fill:#f5f5dc;fill-opacity:1" />
</svg>
