<?xml version="1.0" encoding="UTF-8" standalone="no"?>
<svg
   height="24"
   viewBox="0 -960 960 960"
   width="24"
   version="1.1"
   id="svg1"
   sodipodi:docname="icon-marker-1.svg"
   inkscape:version="1.3.2 (091e20ef0f, 2023-11-25, custom)"
   xmlns:inkscape="http://www.inkscape.org/namespaces/inkscape"
   xmlns:sodipodi="http://sodipodi.sourceforge.net/DTD/sodipodi-0.dtd"
   xmlns="http://www.w3.org/2000/svg"
   xmlns:svg="http://www.w3.org/2000/svg">
  <defs
     id="defs1" />
  <sodipodi:namedview
     id="namedview1"
     pagecolor="#ffffff"
     bordercolor="#000000"
     borderopacity="0.25"
     inkscape:showpageshadow="2"
     inkscape:pageopacity="0.0"
     inkscape:pagecheckerboard="0"
     inkscape:deskcolor="#d1d1d1"
     inkscape:zoom="8.28125"
     inkscape:cx="-5.9169811"
     inkscape:cy="23.003774"
     inkscape:window-width="1920"
     inkscape:window-height="1015"
     inkscape:window-x="0"
     inkscape:window-y="0"
     inkscape:window-maximized="1"
     inkscape:current-layer="svg1" />
  <path
     d="M200-160q-85 0-142.5-57.5T0-360q0-85 58.5-142.5T200-560q77 0 129.5 46T396-400h26l-72-200h-70v-80h200v80h-44l14 40h192l-58-160H480v-80h104q26 0 46.5 14t29.5 38l68 186h32q83 0 141.5 58.5T960-362q0 84-58 143t-142 59q-72 0-126.5-45T564-320H396q-14 69-68 114.5T200-160Zm0-80q41 0 70.5-22.5T312-320H200v-80h112q-12-36-41.5-58T200-480q-51 0-85.5 34.5T80-360q0 50 34.5 85t85.5 35Zm308-160h56q5-23 13.5-43t22.5-37H478l30 80Zm252 160q51 0 85.5-35t34.5-85q0-51-34.5-85.5T760-480h-4l40 106-76 28-38-106q-20 17-31 40t-11 52q0 50 34.5 85t85.5 35ZM196-360Zm564 0Z"
     id="path1"
     style="fill:#002c08;fill-opacity:1" />
</svg>
